# xmcd
#
# Track frame offsets:
#	150
#	22256
#	53091
#	82323
#	111243
#	143538
#	147094
#	170686
#	203714
#	237057
#	239631
#	266855
#	296643
#	322169
#	343173
#
# Disc length: 4607 seconds
#
# Revision: 0
# Processed by: cddbd v1.5.2PL0 Copyright (c) Steve Scherf et al.
# Submitted via: audiograbber 1.83.01
#
DISCID=f111fd0f
DTITLE=César de Melero - My Definition
DYEAR=2006
DGENRE=House
TTITLE0=Demetucci Ft. Kindbud - All night Long
TTITLE1=Demetucci - Nu Generation (Tribute To Keith Haring)
TTITLE2=Demetucci - Life
TTITLE3=D.O.D. - 1, 2, 3, 4 (Demetucci Remix)
TTITLE4=Demetucci - Make u Dance
TTITLE5=Demetucci - SudInstrumental (Interlude)
TTITLE6=Demetucci - Mountains
TTITLE7=Demetucci - La nueva Rio
TTITLE8=René Et Gaston - Valleé de L'Armes (Demetucci Remix)
TTITLE9=Demetucci - Cuéntame (Interlude)
TTITLE10=Stephane Malca Ft. Valentino - Pursuit Of Happiness (Demetucci Remix)
TTITLE11=Alëem - Feliz Yoi (Demetucci Remix)
TTITLE12=Demetucci Ft. Howard Perry - Take My Illusion
TTITLE13=Demetucci Ft. Kindbud - What U Want
TTITLE14=Demetucci - Mi Dial (Radio Edit)
EXTD=CRG
EXTT0=
EXTT1=
EXTT2=
EXTT3=
EXTT4=
EXTT5=
EXTT6=
EXTT7=
EXTT8=
EXTT9=
EXTT10=
EXTT11=
EXTT12=
EXTT13=
EXTT14=
PLAYORDER=
